<svg xmlns="http://www.w3.org/2000/svg" viewBox="0 0 265 46"><path d="M0 12.2h7.8v4.4c2.8-3.4 6.1-5.1 10-5.1 2.1 0 3.8.4 5.4 1.3 1.5.8 2.8 2.1 3.7 3.8 1.4-1.7 2.9-3 4.6-3.8 1.6-.8 3.4-1.3 5.2-1.3 2.4 0 4.4.5 6 1.5 1.6.9 2.9 2.4 3.7 4.2.6 1.4.9 3.6.9 6.7v20.6h-8.5V26c0-3.2-.3-5.2-.9-6.2-.8-1.2-2-1.8-3.6-1.8-1.2 0-2.3.4-3.4 1.1-1 .7-1.8 1.8-2.3 3.2-.5 1.4-.7 3.6-.7 6.6v15.4h-8.5V26.8c0-3.1-.2-5.1-.5-6.1-.3-.9-.8-1.6-1.4-2-.6-.5-1.4-.7-2.5-.7-1.3 0-2.5.4-3.5 1.1-1 .7-1.8 1.7-2.3 3.1-.4 1.3-.7 3.5-.7 6.6v15.6H0V12.2zm54.9-4.3V0h8.5v7.9h-8.5zm0 36.5V12.2h8.5v32.2h-8.5zm45.5 0h-8.5V28c0-3.5-.2-5.7-.5-6.7-.4-1-1-1.8-1.8-2.4-.8-.6-1.8-.8-2.9-.8-1.5 0-2.8.4-4 1.2-1.2.8-2 1.9-2.4 3.2-.4 1.3-.6 3.8-.6 7.4v14.6h-8.5V12.2H79V17c2.8-3.6 6.3-5.4 10.6-5.4 1.9 0 3.6.3 5.1 1 1.6.7 2.7 1.5 3.5 2.6.8 1 1.4 2.2 1.7 3.6.3 1.3.5 3.2.5 5.7v19.9zm5.8-16.5c0-2.8.7-5.6 2.1-8.2 1.4-2.6 3.4-4.7 5.9-6.1 2.6-1.4 5.4-2.1 8.6-2.1 4.9 0 8.8 1.6 12 4.8 3.1 3.1 4.7 7.1 4.7 12s-1.6 8.9-4.7 12.1c-3.1 3.2-7.1 4.8-11.8 4.8-2.9 0-5.8-.7-8.4-2-2.7-1.3-4.7-3.3-6.1-5.8-1.6-2.7-2.3-5.9-2.3-9.5zm8.7.4c0 3.2.8 5.6 2.3 7.3 1.5 1.7 3.4 2.5 5.6 2.5s4.1-.8 5.6-2.5 2.3-4.2 2.3-7.4c0-3.1-.8-5.6-2.3-7.3-1.5-1.7-3.4-2.5-5.6-2.5s-4.1.8-5.6 2.5-2.3 4.2-2.3 7.4zm38.4 16.1h-8.5V12.2h7.9v4.6c1.4-2.2 2.6-3.6 3.6-4.3 1.1-.7 2.3-1 3.7-1 1.9 0 3.8.5 5.6 1.6l-2.6 7.4c-1.4-.9-2.8-1.4-4-1.4-1.2 0-2.2.3-3 1-.8.6-1.5 1.8-2 3.5s-.7 5.3-.7 10.8v10zM174.7 22l-7.7-1.4c.9-3.1 2.4-5.4 4.5-6.9s5.3-2.2 9.4-2.2c3.8 0 6.6.5 8.5 1.4 1.9.9 3.2 2 3.9 3.4.8 1.4 1.2 3.9 1.2 7.6l-.1 9.9c0 2.8.1 4.9.4 6.3.3 1.3.8 2.8 1.5 4.3h-8.4c-.2-.6-.5-1.4-.8-2.5-.1-.5-.2-.8-.3-1-1.5 1.4-3 2.5-4.7 3.2-1.7.7-3.4 1.1-5.3 1.1-3.3 0-5.9-.9-7.8-2.7-1.9-1.8-2.8-4.1-2.8-6.8 0-1.8.4-3.4 1.3-4.8s2.1-2.5 3.6-3.3c1.6-.8 3.8-1.4 6.8-2 4-.7 6.7-1.4 8.3-2.1v-.8c0-1.6-.4-2.8-1.2-3.5-.8-.7-2.3-1.1-4.6-1.1-1.5 0-2.7.3-3.5.9-1 .5-1.7 1.5-2.2 3zm11.4 6.9c-1.1.4-2.8.8-5.2 1.3-2.4.5-3.9 1-4.6 1.5-1.1.8-1.7 1.8-1.7 3s.4 2.2 1.3 3.1c.9.9 2 1.3 3.4 1.3 1.5 0 3-.5 4.4-1.5 1-.8 1.7-1.7 2-2.8.2-.7.3-2.1.3-4.1v-1.8zm12.8 6.3l8.5-1.3c.4 1.7 1.1 2.9 2.2 3.8 1.1.8 2.7 1.3 4.7 1.3 2.2 0 3.9-.4 5-1.2.7-.6 1.1-1.3 1.1-2.3 0-.6-.2-1.2-.6-1.6-.4-.4-1.4-.8-2.8-1.1-6.9-1.5-11.2-2.9-13-4.1-2.5-1.7-3.8-4.1-3.8-7.2 0-2.8 1.1-5.1 3.3-7 2.2-1.9 5.6-2.8 10.2-2.8 4.4 0 7.7.7 9.8 2.1 2.1 1.4 3.6 3.6 4.4 6.4l-8 1.5c-.3-1.3-1-2.2-2-2.9-.9-.7-2.3-1-4.1-1-2.2 0-3.8.3-4.8.9-.6.4-1 1-1 1.7 0 .6.3 1.1.8 1.5.8.6 3.4 1.4 7.9 2.4s7.7 2.3 9.5 3.8c1.8 1.5 2.7 3.6 2.7 6.3 0 2.9-1.2 5.5-3.7 7.6-2.5 2.1-6.1 3.2-10.9 3.2-4.4 0-7.9-.9-10.4-2.7-2.5-1.8-4.2-4.2-5-7.3zm57.8 9.2v-4.8c-1.2 1.7-2.7 3.1-4.6 4.1-1.9 1-3.9 1.5-6 1.5-2.2 0-4.1-.5-5.8-1.4-1.7-.9-3-2.3-3.7-4-.8-1.7-1.2-4.1-1.2-7.1V12.2h8.5V27c0 4.5.2 7.3.5 8.3.3 1 .9 1.8 1.7 2.4.8.6 1.9.9 3.1.9 1.5 0 2.8-.4 3.9-1.2 1.2-.8 1.9-1.8 2.4-3 .4-1.2.6-4.1.6-8.7V12.2h8.5v32.2h-7.9z" fill="#004a96"/></svg>